<svg xmlns="http://www.w3.org/2000/svg" xmlns:xlink="http://www.w3.org/1999/xlink" id="visual" viewBox="0 0 900 675" width="900" height="675" version="1.1"><path d="M449 0L467 16C485 32 521 64 513.8 96.2C506.7 128.3 456.3 160.7 452 192.8C447.7 225 489.3 257 493.3 289.2C497.3 321.3 463.7 353.7 464.8 385.8C466 418 502 450 492 482.2C482 514.3 426 546.7 424.8 578.8C423.7 611 477.3 643 504.2 659L531 675L0 675L0 659C0 643 0 611 0 578.8C0 546.7 0 514.3 0 482.2C0 450 0 418 0 385.8C0 353.7 0 321.3 0 289.2C0 257 0 225 0 192.8C0 160.7 0 128.3 0 96.2C0 64 0 32 0 16L0 0Z" fill="#00ffff"/><path d="M333 0L324.8 16C316.7 32 300.3 64 298.8 96.2C297.3 128.3 310.7 160.7 331.3 192.8C352 225 380 257 394.7 289.2C409.3 321.3 410.7 353.7 397.7 385.8C384.7 418 357.3 450 336.3 482.2C315.3 514.3 300.7 546.7 310.2 578.8C319.7 611 353.3 643 370.2 659L387 675L0 675L0 659C0 643 0 611 0 578.8C0 546.7 0 514.3 0 482.2C0 450 0 418 0 385.8C0 353.7 0 321.3 0 289.2C0 257 0 225 0 192.8C0 160.7 0 128.3 0 96.2C0 64 0 32 0 16L0 0Z" fill="#00c7eb"/><path d="M213 0L218.8 16C224.7 32 236.3 64 246.5 96.2C256.7 128.3 265.3 160.7 257.5 192.8C249.7 225 225.3 257 220.8 289.2C216.3 321.3 231.7 353.7 249.3 385.8C267 418 287 450 278.8 482.2C270.7 514.3 234.3 546.7 222 578.8C209.7 611 221.3 643 227.2 659L233 675L0 675L0 659C0 643 0 611 0 578.8C0 546.7 0 514.3 0 482.2C0 450 0 418 0 385.8C0 353.7 0 321.3 0 289.2C0 257 0 225 0 192.8C0 160.7 0 128.3 0 96.2C0 64 0 32 0 16L0 0Z" fill="#008fc3"/><path d="M102 0L110.2 16C118.3 32 134.7 64 134.3 96.2C134 128.3 117 160.7 120 192.8C123 225 146 257 147.5 289.2C149 321.3 129 353.7 128.5 385.8C128 418 147 450 159.7 482.2C172.3 514.3 178.7 546.7 165.8 578.8C153 611 121 643 105 659L89 675L0 675L0 659C0 643 0 611 0 578.8C0 546.7 0 514.3 0 482.2C0 450 0 418 0 385.8C0 353.7 0 321.3 0 289.2C0 257 0 225 0 192.8C0 160.7 0 128.3 0 96.2C0 64 0 32 0 16L0 0Z" fill="#145a92"/></svg>