<svg xmlns="http://www.w3.org/2000/svg" xmlns:xlink="http://www.w3.org/1999/xlink" id="visual" viewBox="0 0 900 100" width="900" height="100" version="1.1"><path d="M0 21L11.5 20.8C23 20.7 46 20.3 69 17.3C92 14.3 115 8.7 138.2 9.7C161.3 10.7 184.7 18.3 207.8 18C231 17.7 254 9.3 277 5.2C300 1 323 1 346 6.3C369 11.7 392 22.3 415.2 26C438.3 29.7 461.7 26.3 484.8 22.8C508 19.3 531 15.7 554 17.3C577 19 600 26 623 30C646 34 669 35 692.2 34.8C715.3 34.7 738.7 33.3 761.8 30.7C785 28 808 24 831 20.2C854 16.3 877 12.7 888.5 10.8L900 9L900 101L888.5 101C877 101 854 101 831 101C808 101 785 101 761.8 101C738.7 101 715.3 101 692.2 101C669 101 646 101 623 101C600 101 577 101 554 101C531 101 508 101 484.8 101C461.7 101 438.3 101 415.2 101C392 101 369 101 346 101C323 101 300 101 277 101C254 101 231 101 207.8 101C184.7 101 161.3 101 138.2 101C115 101 92 101 69 101C46 101 23 101 11.5 101L0 101Z" fill="#00ffff"/><path d="M0 37L11.5 40.3C23 43.7 46 50.3 69 51.2C92 52 115 47 138.2 41.8C161.3 36.7 184.7 31.3 207.8 27.5C231 23.7 254 21.3 277 23.3C300 25.3 323 31.7 346 37.5C369 43.3 392 48.7 415.2 51.2C438.3 53.7 461.7 53.3 484.8 51.5C508 49.7 531 46.3 554 45.8C577 45.3 600 47.7 623 49.3C646 51 669 52 692.2 47.5C715.3 43 738.7 33 761.8 30.2C785 27.3 808 31.7 831 36.8C854 42 877 48 888.5 51L900 54L900 101L888.5 101C877 101 854 101 831 101C808 101 785 101 761.8 101C738.7 101 715.3 101 692.2 101C669 101 646 101 623 101C600 101 577 101 554 101C531 101 508 101 484.8 101C461.7 101 438.3 101 415.2 101C392 101 369 101 346 101C323 101 300 101 277 101C254 101 231 101 207.8 101C184.7 101 161.3 101 138.2 101C115 101 92 101 69 101C46 101 23 101 11.5 101L0 101Z" fill="#00c7eb"/><path d="M0 41L11.5 42.3C23 43.7 46 46.3 69 52.2C92 58 115 67 138.2 69.2C161.3 71.3 184.7 66.7 207.8 64.7C231 62.7 254 63.3 277 60.5C300 57.7 323 51.3 346 48.3C369 45.3 392 45.7 415.2 47.2C438.3 48.7 461.7 51.3 484.8 52.2C508 53 531 52 554 50.7C577 49.3 600 47.7 623 47.3C646 47 669 48 692.2 52.2C715.3 56.3 738.7 63.7 761.8 67.3C785 71 808 71 831 66.7C854 62.3 877 53.7 888.5 49.3L900 45L900 101L888.5 101C877 101 854 101 831 101C808 101 785 101 761.8 101C738.7 101 715.3 101 692.2 101C669 101 646 101 623 101C600 101 577 101 554 101C531 101 508 101 484.8 101C461.7 101 438.3 101 415.2 101C392 101 369 101 346 101C323 101 300 101 277 101C254 101 231 101 207.8 101C184.7 101 161.3 101 138.2 101C115 101 92 101 69 101C46 101 23 101 11.5 101L0 101Z" fill="#008fc3"/><path d="M0 80L11.5 81.5C23 83 46 86 69 88.5C92 91 115 93 138.2 91C161.3 89 184.7 83 207.8 83.3C231 83.7 254 90.3 277 93.8C300 97.3 323 97.7 346 97C369 96.3 392 94.7 415.2 92.3C438.3 90 461.7 87 484.8 86.5C508 86 531 88 554 84.2C577 80.3 600 70.7 623 70.2C646 69.7 669 78.3 692.2 84C715.3 89.7 738.7 92.3 761.8 92.3C785 92.3 808 89.7 831 88C854 86.3 877 85.7 888.5 85.3L900 85L900 101L888.5 101C877 101 854 101 831 101C808 101 785 101 761.8 101C738.7 101 715.3 101 692.2 101C669 101 646 101 623 101C600 101 577 101 554 101C531 101 508 101 484.8 101C461.7 101 438.3 101 415.2 101C392 101 369 101 346 101C323 101 300 101 277 101C254 101 231 101 207.8 101C184.7 101 161.3 101 138.2 101C115 101 92 101 69 101C46 101 23 101 11.5 101L0 101Z" fill="#145a92"/></svg>
