<svg xmlns="http://www.w3.org/2000/svg" xmlns:xlink="http://www.w3.org/1999/xlink" id="visual" viewBox="0 0 900 100" width="900" height="100" version="1.1"><path d="M0 71L16.7 73.7C33.3 76.3 66.7 81.7 100 80.8C133.3 80 166.7 73 200 73C233.3 73 266.7 80 300 83C333.3 86 366.7 85 400 80.8C433.3 76.7 466.7 69.3 500 70.3C533.3 71.3 566.7 80.7 600 83.3C633.3 86 666.7 82 700 78.3C733.3 74.7 766.7 71.3 800 67.3C833.3 63.3 866.7 58.7 883.3 56.3L900 54L900 0L883.3 0C866.7 0 833.3 0 800 0C766.7 0 733.3 0 700 0C666.7 0 633.3 0 600 0C566.7 0 533.3 0 500 0C466.7 0 433.3 0 400 0C366.7 0 333.3 0 300 0C266.7 0 233.3 0 200 0C166.7 0 133.3 0 100 0C66.7 0 33.3 0 16.7 0L0 0Z" fill="#00ffff"/><path d="M0 37L16.7 42C33.3 47 66.7 57 100 60.5C133.3 64 166.7 61 200 57.3C233.3 53.7 266.7 49.3 300 48.5C333.3 47.7 366.7 50.3 400 50.2C433.3 50 466.7 47 500 45.7C533.3 44.3 566.7 44.7 600 45.7C633.3 46.7 666.7 48.3 700 52.7C733.3 57 766.7 64 800 65.2C833.3 66.3 866.7 61.7 883.3 59.3L900 57L900 0L883.3 0C866.7 0 833.3 0 800 0C766.7 0 733.3 0 700 0C666.7 0 633.3 0 600 0C566.7 0 533.3 0 500 0C466.7 0 433.3 0 400 0C366.7 0 333.3 0 300 0C266.7 0 233.3 0 200 0C166.7 0 133.3 0 100 0C66.7 0 33.3 0 16.7 0L0 0Z" fill="#00c7eb"/><path d="M0 46L16.7 42.8C33.3 39.7 66.7 33.3 100 34.3C133.3 35.3 166.7 43.7 200 45.2C233.3 46.7 266.7 41.3 300 40.7C333.3 40 366.7 44 400 43C433.3 42 466.7 36 500 33C533.3 30 566.7 30 600 33C633.3 36 666.7 42 700 43.2C733.3 44.3 766.7 40.7 800 37.2C833.3 33.7 866.7 30.3 883.3 28.7L900 27L900 0L883.3 0C866.7 0 833.3 0 800 0C766.7 0 733.3 0 700 0C666.7 0 633.3 0 600 0C566.7 0 533.3 0 500 0C466.7 0 433.3 0 400 0C366.7 0 333.3 0 300 0C266.7 0 233.3 0 200 0C166.7 0 133.3 0 100 0C66.7 0 33.3 0 16.7 0L0 0Z" fill="#008fc3"/><path d="M0 24L16.7 25.2C33.3 26.3 66.7 28.7 100 29.5C133.3 30.3 166.7 29.7 200 29.5C233.3 29.3 266.7 29.7 300 25.7C333.3 21.7 366.7 13.3 400 9.3C433.3 5.3 466.7 5.7 500 7.3C533.3 9 566.7 12 600 14.2C633.3 16.3 666.7 17.7 700 18.8C733.3 20 766.7 21 800 19C833.3 17 866.7 12 883.3 9.5L900 7L900 0L883.3 0C866.7 0 833.3 0 800 0C766.7 0 733.3 0 700 0C666.7 0 633.3 0 600 0C566.7 0 533.3 0 500 0C466.7 0 433.3 0 400 0C366.7 0 333.3 0 300 0C266.7 0 233.3 0 200 0C166.7 0 133.3 0 100 0C66.7 0 33.3 0 16.7 0L0 0Z" fill="#145a92"/></svg>
